# xmcd
#
# Track frame offsets:
#	150
#	14022
#	28220
#	44394
#	60964
#	76734
#	95490
#	108876
#	122096
#	134596
#	145124
#	163729
#	180718
#	198582
#	214884
#	232346
#	248183
#	263651
#	279023
#	296613
#
# Disc length: 4181 seconds
#
# Revision: 1
# Processed by: cddbd v1.4PL0 Copyright (c) Steve Scherf et al.
# Submitted via: audiograbber 1.80
#
DISCID=26105314
DTITLE=Various Artist - Hott Country 055
DYEAR=1900
DGENRE=
TTITLE0=Steve Wariner/Garth Brooks - Katie Wants A Fast One
TTITLE1=Terri Clark - A Little Gasoline
TTITLE2=ty Herndon - A Love Like that
TTITLE3=Clint Black - Love She Can't Live Without
TTITLE4=Tara Lynn Hart - I Will Be Loving You
TTITLE5=Julian Austin - Forever Loving You
TTITLE6=Chuck Wagon and The Wheels - Beauty's In The Eye Of The Beholder
TTITLE7=Anita Cochran - Good Times
TTITLE8=South Sixty Five - Love Bug ( Bite Me )
TTITLE9=Chris Cummings - No Hurts Me More Than Me
TTITLE10=Prairie Oyster - Man In The Moon
TTITLE11=Brad Paisley - We Danced
TTITLE12=Yankee Grey - This Time Around
TTITLE13=Sara Evans - Born To Fly
TTITLE14=Billy Ray Cyrus - You Won't Be Lonely Now
TTITLE15=Chalee Tennison - What I Tell Myself
TTITLE16=Amanda Stott - Somebody In Love
TTITLE17=Ronnie Milsap - Time, Love And Money
TTITLE18=Phil Vassar - Just Another Day In Paradise
TTITLE19=Jennifer Day - What If It's Me
EXTD=
EXTT0=
EXTT1=
EXTT2=
EXTT3=
EXTT4=
EXTT5=
EXTT6=
EXTT7=
EXTT8=
EXTT9=
EXTT10=
EXTT11=
EXTT12=
EXTT13=
EXTT14=
EXTT15=
EXTT16=
EXTT17=
EXTT18=
EXTT19=
PLAYORDER=
